<svg width="16" height="16" viewBox="0 0 16 16" fill="none" xmlns="http://www.w3.org/2000/svg">
<g id="shape">
<path fill-rule="evenodd" clip-rule="evenodd" d="M1 0C0.447715 0 0 0.447715 0 1V15C0 15.5523 0.447715 16 1 16H6C6.55228 16 7 15.5523 7 15V1C7 0.447715 6.55228 0 6 0H1ZM2 14V2H5V14H2Z" fill="#2B2D33"/>
<path fill-rule="evenodd" clip-rule="evenodd" d="M10 0C9.44771 0 9 0.447715 9 1V15C9 15.5523 9.44771 16 10 16H15C15.5523 16 16 15.5523 16 15V1C16 0.447715 15.5523 0 15 0H10ZM11 14V2H14V14H11Z" fill="#2B2D33"/>
</g>
</svg>
